<?xml version="1.0" encoding="UTF-8"?>
<!DOCTYPE svg PUBLIC "-//W3C//DTD SVG 1.1//EN" "http://www.w3.org/Graphics/SVG/1.1/DTD/svg11.dtd">
<svg xmlns="http://www.w3.org/2000/svg" version="1.1" width="418px" height="190px" style="shape-rendering:geometricPrecision; text-rendering:geometricPrecision; image-rendering:optimizeQuality; fill-rule:evenodd; clip-rule:evenodd" xmlns:xlink="http://www.w3.org/1999/xlink">
<g><path style="opacity:1" fill="#fefefe" d="M -0.5,-0.5 C 34.8333,-0.5 70.1667,-0.5 105.5,-0.5C 100.205,1.46182 96.5381,5.12849 94.5,10.5C 92.6926,15.7643 91.6926,21.431 91.5,27.5C 91.5,28.1667 91.5,28.8333 91.5,29.5C 89.7549,31.0326 88.7549,33.0326 88.5,35.5C 86.5229,38.4682 83.8562,40.8016 80.5,42.5C 73.1958,43.5568 66.1958,44.8902 59.5,46.5C 53.3375,48.322 49.0042,52.322 46.5,58.5C 45.7889,65.1703 45.1222,71.8369 44.5,78.5C 40.5612,84.9826 34.8945,89.3159 27.5,91.5C 15.464,89.503 6.13064,93.503 -0.5,103.5C -0.5,68.8333 -0.5,34.1667 -0.5,-0.5 Z"/></g>
<g><path style="opacity:1" fill="#fdfdfe" d="M 116.5,-0.5 C 216.833,-0.5 317.167,-0.5 417.5,-0.5C 417.5,36.8333 417.5,74.1667 417.5,111.5C 415.372,108.87 413.039,106.37 410.5,104C 405.833,103.333 401.167,103.333 396.5,104C 394.973,105.032 393.64,106.199 392.5,107.5C 391.21,108.058 390.377,109.058 390,110.5C 388.185,116.146 388.185,121.813 390,127.5C 390.383,128.056 390.883,128.389 391.5,128.5C 393.452,131.151 396.119,132.818 399.5,133.5C 401.641,134.163 403.975,134.497 406.5,134.5C 409.269,134.471 411.603,133.805 413.5,132.5C 413.833,132.5 414.167,132.5 414.5,132.5C 415.586,132.38 416.253,131.713 416.5,130.5C 416.253,129.287 415.586,128.62 414.5,128.5C 414.5,128.167 414.5,127.833 414.5,127.5C 414.38,126.414 413.713,125.747 412.5,125.5C 408.481,126.829 404.481,126.829 400.5,125.5C 398.468,124.952 397.468,123.619 397.5,121.5C 404.167,121.5 410.833,121.5 417.5,121.5C 417.5,144.167 417.5,166.833 417.5,189.5C 278.167,189.5 138.833,189.5 -0.5,189.5C -0.5,180.5 -0.5,171.5 -0.5,162.5C 1.81586,165.095 4.14919,167.761 6.5,170.5C 7.41683,171.127 8.41683,171.461 9.5,171.5C 9.88066,172.931 10.8807,173.764 12.5,174C 15.367,174.801 18.0336,174.634 20.5,173.5C 26.027,171.856 30.3603,168.523 33.5,163.5C 34.9547,156.594 35.9547,149.594 36.5,142.5C 37.4749,139.848 38.8082,137.514 40.5,135.5C 43.4801,132.675 46.8134,130.342 50.5,128.5C 51.1667,128.5 51.8333,128.5 52.5,128.5C 57.7846,127.765 63.118,127.265 68.5,127C 69.4158,126.722 70.0825,126.222 70.5,125.5C 71.5832,125.461 72.5832,125.127 73.5,124.5C 76.6587,121.491 79.3253,118.158 81.5,114.5C 82.3809,109.331 83.0475,103.998 83.5,98.5C 83.838,96.146 84.338,93.8127 85,91.5C 89.32,85.658 95.1533,82.3246 102.5,81.5C 106.182,81.6653 109.848,81.4986 113.5,81C 115.653,80.9005 117.319,80.0672 118.5,78.5C 123.352,76.3174 126.352,72.6507 127.5,67.5C 128.765,66.4855 129.431,64.9855 129.5,63C 129.333,61.5 129.167,60 129,58.5C 128.617,57.944 128.117,57.6107 127.5,57.5C 121.98,45.5417 112.98,42.2083 100.5,47.5C 99.4717,49.3615 97.9717,50.6948 96,51.5C 95.2607,53.2205 94.4274,54.8872 93.5,56.5C 94.5023,68.8476 90.8356,79.3476 82.5,88C 80.9751,89.0086 79.3084,89.5086 77.5,89.5C 71.0907,89.6472 65.0907,90.6472 59.5,92.5C 54.2514,93.0034 50.5847,95.67 48.5,100.5C 47.0337,101.347 46.2004,102.68 46,104.5C 45.5017,107.817 45.335,111.15 45.5,114.5C 45.9787,119.726 44.6454,124.392 41.5,128.5C 40.0256,129.436 39.0256,130.77 38.5,132.5C 35.6717,134.158 32.6717,135.492 29.5,136.5C 22.753,136.602 16.4197,137.602 10.5,139.5C 9.44802,139.351 8.44802,139.517 7.5,140C 4.70651,143.105 2.03984,146.272 -0.5,149.5C -0.5,138.5 -0.5,127.5 -0.5,116.5C 0.142944,118.076 1.14294,119.41 2.5,120.5C 14.0274,131.786 24.5274,130.786 34,117.5C 35.0086,110.535 35.8419,103.535 36.5,96.5C 37.7828,94.2699 38.7828,91.9366 39.5,89.5C 41.5735,88.7005 43.2402,87.3671 44.5,85.5C 44.8333,85.5 45.1667,85.5 45.5,85.5C 51.6943,83.9124 58.0276,83.079 64.5,83C 65.4158,82.7216 66.0825,82.2216 66.5,81.5C 69.1684,81.3337 71.5017,80.3337 73.5,78.5C 76.5954,76.4108 78.9287,73.7441 80.5,70.5C 82.4364,66.2853 83.1031,61.6186 82.5,56.5C 83.6697,46.2896 89.0031,39.4563 98.5,36C 109.547,37.8091 118.714,34.6424 126,26.5C 127.128,24.6547 127.628,22.6547 127.5,20.5C 128.725,19.8478 129.392,18.6811 129.5,17C 129.392,15.3189 128.725,14.1522 127.5,13.5C 126.575,9.94076 125.242,6.60742 123.5,3.5C 122.448,3.64945 121.448,3.48278 120.5,3C 119.409,1.44988 118.076,0.283213 116.5,-0.5 Z"/></g>
<g><path style="opacity:1" fill="#b5d9e9" d="M 127.5,13.5 C 128.725,14.1522 129.392,15.3189 129.5,17C 129.392,18.6811 128.725,19.8478 127.5,20.5C 127.5,18.1667 127.5,15.8333 127.5,13.5 Z"/></g>
<g><path style="opacity:1" fill="#8dc5de" d="M 94.5,10.5 C 93.7648,15.7846 93.2648,21.118 93,26.5C 92.6174,27.056 92.1174,27.3893 91.5,27.5C 91.6926,21.431 92.6926,15.7643 94.5,10.5 Z"/></g>
<g><path style="opacity:1" fill="#b7daea" d="M 91.5,29.5 C 91.2451,31.9674 90.2451,33.9674 88.5,35.5C 88.7549,33.0326 89.7549,31.0326 91.5,29.5 Z"/></g>
<g><path style="opacity:1" fill="#4ea6cc" d="M 105.5,-0.5 C 109.167,-0.5 112.833,-0.5 116.5,-0.5C 118.076,0.283213 119.409,1.44988 120.5,3C 121.448,3.48278 122.448,3.64945 123.5,3.5C 125.242,6.60742 126.575,9.94076 127.5,13.5C 127.5,15.8333 127.5,18.1667 127.5,20.5C 127.628,22.6547 127.128,24.6547 126,26.5C 118.714,34.6424 109.547,37.8091 98.5,36C 89.0031,39.4563 83.6697,46.2896 82.5,56.5C 81.659,61.0097 80.9924,65.6764 80.5,70.5C 78.9287,73.7441 76.5954,76.4108 73.5,78.5C 71.5017,80.3337 69.1684,81.3337 66.5,81.5C 61.8215,81.3342 57.1548,81.5008 52.5,82C 49.7187,82.5218 47.3854,83.6885 45.5,85.5C 45.1667,85.5 44.8333,85.5 44.5,85.5C 43.5266,85.0133 42.5266,84.5133 41.5,84C 43.3417,82.6545 44.3417,80.8211 44.5,78.5C 45.1222,71.8369 45.7889,65.1703 46.5,58.5C 49.0042,52.322 53.3375,48.322 59.5,46.5C 65.5453,46.5717 71.5453,46.0717 77.5,45C 78.9423,44.6232 79.9423,43.7899 80.5,42.5C 83.8562,40.8016 86.5229,38.4682 88.5,35.5C 90.2451,33.9674 91.2451,31.9674 91.5,29.5C 91.5,28.8333 91.5,28.1667 91.5,27.5C 92.1174,27.3893 92.6174,27.056 93,26.5C 93.2648,21.118 93.7648,15.7846 94.5,10.5C 96.5381,5.12849 100.205,1.46182 105.5,-0.5 Z"/></g>
<g><path style="opacity:1" fill="#c7e2ee" d="M 80.5,42.5 C 79.9423,43.7899 78.9423,44.6232 77.5,45C 71.5453,46.0717 65.5453,46.5717 59.5,46.5C 66.1958,44.8902 73.1958,43.5568 80.5,42.5 Z"/></g>
<g><path style="opacity:1" fill="#cee6f0" d="M 82.5,56.5 C 83.1031,61.6186 82.4364,66.2853 80.5,70.5C 80.9924,65.6764 81.659,61.0097 82.5,56.5 Z"/></g>
<g><path style="opacity:1" fill="#badcea" d="M 127.5,57.5 C 128.117,57.6107 128.617,57.944 129,58.5C 129.167,60 129.333,61.5 129.5,63C 129.431,64.9855 128.765,66.4855 127.5,67.5C 127.5,64.1667 127.5,60.8333 127.5,57.5 Z"/></g>
<g><path style="opacity:1" fill="#79bad7" d="M 118.5,78.5 C 117.319,80.0672 115.653,80.9005 113.5,81C 109.848,81.4986 106.182,81.6653 102.5,81.5C 107.444,79.7382 112.777,78.7382 118.5,78.5 Z"/></g>
<g><path style="opacity:1" fill="#dcedf4" d="M 66.5,81.5 C 66.0825,82.2216 65.4158,82.7216 64.5,83C 58.0276,83.079 51.6943,83.9124 45.5,85.5C 47.3854,83.6885 49.7187,82.5218 52.5,82C 57.1548,81.5008 61.8215,81.3342 66.5,81.5 Z"/></g>
<g><path style="opacity:1" fill="#4ea6cc" d="M 39.5,89.5 C 38.7828,91.9366 37.7828,94.2699 36.5,96.5C 35.8419,103.535 35.0086,110.535 34,117.5C 24.5274,130.786 14.0274,131.786 2.5,120.5C 2.24512,118.033 1.24512,116.033 -0.5,114.5C -0.5,110.833 -0.5,107.167 -0.5,103.5C 6.13064,93.503 15.464,89.503 27.5,91.5C 31.9015,92.1304 35.5682,90.7971 38.5,87.5C 39.2975,87.9569 39.6309,88.6236 39.5,89.5 Z"/></g>
<g><path style="opacity:1" fill="#2490bf" d="M 127.5,57.5 C 127.5,60.8333 127.5,64.1667 127.5,67.5C 126.352,72.6507 123.352,76.3174 118.5,78.5C 112.777,78.7382 107.444,79.7382 102.5,81.5C 95.1533,82.3246 89.32,85.658 85,91.5C 84.338,93.8127 83.838,96.146 83.5,98.5C 82.7321,99.2625 82.2321,100.263 82,101.5C 81.501,105.821 81.3343,110.154 81.5,114.5C 79.3253,118.158 76.6587,121.491 73.5,124.5C 72.5832,125.127 71.5832,125.461 70.5,125.5C 64.1042,125.701 58.1042,126.701 52.5,128.5C 51.8333,128.5 51.1667,128.5 50.5,128.5C 48.1843,129.16 45.851,129.827 43.5,130.5C 42.2867,130.253 41.62,129.586 41.5,128.5C 44.6454,124.392 45.9787,119.726 45.5,114.5C 46.4913,109.952 47.4913,105.285 48.5,100.5C 50.5847,95.67 54.2514,93.0034 59.5,92.5C 64.3634,92.6185 69.1968,92.2852 74,91.5C 75.6811,91.3917 76.8478,90.7251 77.5,89.5C 79.3084,89.5086 80.9751,89.0086 82.5,88C 90.8356,79.3476 94.5023,68.8476 93.5,56.5C 94.4274,54.8872 95.2607,53.2205 96,51.5C 97.9717,50.6948 99.4717,49.3615 100.5,47.5C 112.98,42.2083 121.98,45.5417 127.5,57.5 Z"/></g>
<g><path style="opacity:1" fill="#7abbd8" d="M 44.5,78.5 C 44.3417,80.8211 43.3417,82.6545 41.5,84C 42.5266,84.5133 43.5266,85.0133 44.5,85.5C 43.2402,87.3671 41.5735,88.7005 39.5,89.5C 39.6309,88.6236 39.2975,87.9569 38.5,87.5C 35.5682,90.7971 31.9015,92.1304 27.5,91.5C 34.8945,89.3159 40.5612,84.9826 44.5,78.5 Z"/></g>
<g><path style="opacity:1" fill="#82bfda" d="M 77.5,89.5 C 76.8478,90.7251 75.6811,91.3917 74,91.5C 69.1968,92.2852 64.3634,92.6185 59.5,92.5C 65.0907,90.6472 71.0907,89.6472 77.5,89.5 Z"/></g>
<g><path style="opacity:1" fill="#3195c2" d="M 124.5,125.5 C 125.5,125.5 126.5,125.5 127.5,125.5C 127.993,127.806 128.326,130.139 128.5,132.5C 127.508,132.328 126.842,132.662 126.5,133.5C 121.105,133.733 115.772,133.4 110.5,132.5C 101.478,129.102 97.1442,122.435 97.5,112.5C 98.2029,98.9644 105.37,91.9644 119,91.5C 122.49,91.9987 125.99,92.332 129.5,92.5C 129.534,95.1985 128.867,97.6985 127.5,100C 123.243,99.4683 118.909,99.4683 114.5,100C 107.436,105.259 105.603,112.092 109,120.5C 113.21,124.924 118.376,126.59 124.5,125.5 Z"/></g>
<g><path style="opacity:1" fill="#2d94c1" d="M 326.5,92.5 C 326.5,94.8333 326.5,97.1667 326.5,99.5C 325.167,99.5 323.833,99.5 322.5,99.5C 316.448,98.5831 311.448,100.25 307.5,104.5C 305.348,106.607 304.348,109.274 304.5,112.5C 304.348,115.726 305.348,118.393 307.5,120.5C 308.972,122.134 310.638,123.634 312.5,125C 316.152,125.499 319.818,125.665 323.5,125.5C 324.5,125.5 325.5,125.5 326.5,125.5C 326.5,127.833 326.5,130.167 326.5,132.5C 326.167,132.5 325.833,132.5 325.5,132.5C 320.213,133.342 314.88,133.676 309.5,133.5C 302.042,130.57 297.376,125.237 295.5,117.5C 295.352,112.678 296.019,108.012 297.5,103.5C 301.516,94.683 308.516,90.683 318.5,91.5C 321.197,91.7027 323.864,92.036 326.5,92.5 Z"/></g>
<g><path style="opacity:1" fill="#92c7de" d="M 326.5,92.5 C 327.586,92.62 328.253,93.2867 328.5,94.5C 327.844,96.4534 327.511,98.4534 327.5,100.5C 325.585,100.784 323.919,100.451 322.5,99.5C 323.833,99.5 325.167,99.5 326.5,99.5C 326.5,97.1667 326.5,94.8333 326.5,92.5 Z"/></g>
<g><path style="opacity:1" fill="#2992c0" d="M 139.5,103.5 C 144.385,103.248 149.219,103.581 154,104.5C 156.273,106.192 158.106,108.192 159.5,110.5C 159.5,117.833 159.5,125.167 159.5,132.5C 156.833,132.5 154.167,132.5 151.5,132.5C 151.631,131.624 151.298,130.957 150.5,130.5C 149.482,131.193 148.482,131.859 147.5,132.5C 144.236,133.324 140.902,133.658 137.5,133.5C 135.833,132.5 134.5,131.167 133.5,129.5C 133.323,125.766 133.656,122.099 134.5,118.5C 138.506,114.276 143.506,112.609 149.5,113.5C 149.715,111.821 149.048,110.821 147.5,110.5C 146.848,109.275 145.681,108.608 144,108.5C 142.319,108.608 141.152,109.275 140.5,110.5C 139.167,110.5 137.833,110.5 136.5,110.5C 136.579,109.07 136.246,107.736 135.5,106.5C 137.184,105.85 138.517,104.85 139.5,103.5 Z"/></g>
<g><path style="opacity:1" fill="#2591c0" d="M 167.5,103.5 C 170.167,103.5 172.833,103.5 175.5,103.5C 175.351,104.552 175.517,105.552 176,106.5C 176.903,105.299 178.069,104.465 179.5,104C 183.167,103.333 186.833,103.333 190.5,104C 191.333,105.5 192.5,106.667 194,107.5C 194.483,108.448 194.649,109.448 194.5,110.5C 194.5,117.833 194.5,125.167 194.5,132.5C 191.833,132.5 189.167,132.5 186.5,132.5C 186.666,126.158 186.5,119.825 186,113.5C 185.617,112.944 185.117,112.611 184.5,112.5C 181.775,109.793 179.275,110.126 177,113.5C 176.5,119.825 176.334,126.158 176.5,132.5C 173.5,132.5 170.5,132.5 167.5,132.5C 167.5,122.833 167.5,113.167 167.5,103.5 Z"/></g>
<g><path style="opacity:1" fill="#2992c0" d="M 223.5,103.5 C 223.5,105.833 223.5,108.167 223.5,110.5C 214.015,108.495 209.848,112.162 211,121.5C 211.876,123.635 213.376,124.969 215.5,125.5C 217.717,127.08 220.384,128.08 223.5,128.5C 224.246,129.736 224.579,131.07 224.5,132.5C 219.897,133.383 215.23,133.717 210.5,133.5C 209.026,132.325 207.36,131.325 205.5,130.5C 201.817,125.512 200.484,119.845 201.5,113.5C 203.25,112.341 204.25,110.674 204.5,108.5C 205.716,106.549 207.382,105.049 209.5,104C 214.155,103.501 218.821,103.334 223.5,103.5 Z"/></g>
<g><path style="opacity:1" fill="#2b93c1" d="M 255.5,110.5 C 255.5,113.833 255.5,117.167 255.5,120.5C 249.167,120.5 242.833,120.5 236.5,120.5C 236.263,121.791 236.596,122.791 237.5,123.5C 238.694,124.272 239.694,125.272 240.5,126.5C 245.102,127.246 249.769,127.579 254.5,127.5C 254.5,129.167 254.5,130.833 254.5,132.5C 252.901,132.232 251.568,132.566 250.5,133.5C 246.102,133.706 241.768,133.373 237.5,132.5C 233.236,131.235 230.236,128.568 228.5,124.5C 228.307,120.434 228.64,116.434 229.5,112.5C 231.102,105.763 235.436,102.763 242.5,103.5C 248.629,102.822 252.963,105.155 255.5,110.5 Z"/></g>
<g><path style="opacity:1" fill="#2591c0" d="M 279.5,103.5 C 279.5,106.167 279.5,108.833 279.5,111.5C 277.473,111.338 275.473,111.505 273.5,112C 272.944,112.383 272.611,112.883 272.5,113.5C 272.5,114.167 272.167,114.5 271.5,114.5C 270.51,120.31 270.177,126.31 270.5,132.5C 267.5,132.5 264.5,132.5 261.5,132.5C 261.5,122.833 261.5,113.167 261.5,103.5C 264.167,103.5 266.833,103.5 269.5,103.5C 269.863,108.515 271.197,108.682 273.5,104C 275.473,103.505 277.473,103.338 279.5,103.5 Z"/></g>
<g><path style="opacity:1" fill="#badcea" d="M 279.5,103.5 C 281.388,105.988 282.055,108.988 281.5,112.5C 278.43,112.368 275.43,112.701 272.5,113.5C 272.611,112.883 272.944,112.383 273.5,112C 275.473,111.505 277.473,111.338 279.5,111.5C 279.5,108.833 279.5,106.167 279.5,103.5 Z"/></g>
<g><path style="opacity:1" fill="#2b93c1" d="M 358.5,128.5 C 356.611,129.604 354.945,130.937 353.5,132.5C 352.833,132.5 352.167,132.5 351.5,132.5C 347.5,133.833 343.5,133.833 339.5,132.5C 335.802,130.802 333.135,128.135 331.5,124.5C 331.231,120.069 331.564,115.735 332.5,111.5C 332.351,110.448 332.517,109.448 333,108.5C 335.073,106.835 337.24,105.335 339.5,104C 356.044,100.876 363.211,107.709 361,124.5C 360.8,126.32 359.966,127.653 358.5,128.5 Z"/></g>
<g><path style="opacity:1" fill="#2992c0" d="M 368.5,103.5 C 370.833,103.5 373.167,103.5 375.5,103.5C 375.863,108.515 377.197,108.682 379.5,104C 380.448,103.517 381.448,103.351 382.5,103.5C 383.5,103.5 384.5,103.5 385.5,103.5C 385.5,106.167 385.5,108.833 385.5,111.5C 383.473,111.338 381.473,111.505 379.5,112C 378.944,112.383 378.611,112.883 378.5,113.5C 377.87,119.934 377.203,126.267 376.5,132.5C 373.833,132.5 371.167,132.5 368.5,132.5C 368.5,122.833 368.5,113.167 368.5,103.5 Z"/></g>
<g><path style="opacity:1" fill="#2b93c1" d="M 417.5,111.5 C 417.5,114.833 417.5,118.167 417.5,121.5C 410.833,121.5 404.167,121.5 397.5,121.5C 397.468,123.619 398.468,124.952 400.5,125.5C 400.611,126.117 400.944,126.617 401.5,127C 405.821,127.499 410.154,127.666 414.5,127.5C 414.5,127.833 414.5,128.167 414.5,128.5C 414.5,129.833 414.5,131.167 414.5,132.5C 414.167,132.5 413.833,132.5 413.5,132.5C 408.881,133.314 404.214,133.647 399.5,133.5C 396.119,132.818 393.452,131.151 391.5,128.5C 389.9,121.382 390.233,114.382 392.5,107.5C 393.64,106.199 394.973,105.032 396.5,104C 401.167,103.333 405.833,103.333 410.5,104C 413.039,106.37 415.372,108.87 417.5,111.5 Z"/></g>
<g><path style="opacity:1" fill="#81bfda" d="M 223.5,103.5 C 224.586,103.62 225.253,104.287 225.5,105.5C 225.199,107.422 224.533,109.088 223.5,110.5C 223.5,108.167 223.5,105.833 223.5,103.5 Z"/></g>
<g><path style="opacity:1" fill="#c0dfed" d="M 83.5,98.5 C 83.0475,103.998 82.3809,109.331 81.5,114.5C 81.3343,110.154 81.501,105.821 82,101.5C 82.2321,100.263 82.7321,99.2625 83.5,98.5 Z"/></g>
<g><path style="opacity:1" fill="#82bfda" d="M 139.5,103.5 C 138.517,104.85 137.184,105.85 135.5,106.5C 136.246,107.736 136.579,109.07 136.5,110.5C 134.72,109.01 134.054,107.01 134.5,104.5C 136.216,104.371 137.883,104.038 139.5,103.5 Z"/></g>
<g><path style="opacity:1" fill="#bedeec" d="M 382.5,103.5 C 383.919,102.549 385.585,102.216 387.5,102.5C 387.5,105.833 387.5,109.167 387.5,112.5C 384.43,112.368 381.43,112.701 378.5,113.5C 378.611,112.883 378.944,112.383 379.5,112C 381.473,111.505 383.473,111.338 385.5,111.5C 385.5,108.833 385.5,106.167 385.5,103.5C 384.5,103.5 383.5,103.5 382.5,103.5 Z"/></g>
<g><path style="opacity:1" fill="#7abbd8" d="M 147.5,110.5 C 145.167,110.5 142.833,110.5 140.5,110.5C 141.152,109.275 142.319,108.608 144,108.5C 145.681,108.608 146.848,109.275 147.5,110.5 Z"/></g>
<g><path style="opacity:1" fill="#82c0da" d="M 48.5,100.5 C 47.4913,105.285 46.4913,109.952 45.5,114.5C 45.335,111.15 45.5017,107.817 46,104.5C 46.2004,102.68 47.0337,101.347 48.5,100.5 Z"/></g>
<g><path style="opacity:1" fill="#eef6f9" d="M 240.5,109.5 C 244.577,109.017 246.91,110.684 247.5,114.5C 244.167,114.5 240.833,114.5 237.5,114.5C 237.5,113.167 237.5,111.833 237.5,110.5C 238.791,110.737 239.791,110.404 240.5,109.5 Z"/></g>
<g><path style="opacity:1" fill="#92c7de" d="M 307.5,104.5 C 306.167,109.833 306.167,115.167 307.5,120.5C 305.348,118.393 304.348,115.726 304.5,112.5C 304.348,109.274 305.348,106.607 307.5,104.5 Z"/></g>
<g><path style="opacity:1" fill="#f9fbfc" d="M 350.5,112.5 C 351.766,116.468 351.766,120.468 350.5,124.5C 350.5,124.833 350.5,125.167 350.5,125.5C 348.236,126.219 345.903,126.552 343.5,126.5C 342.4,125.395 341.733,124.062 341.5,122.5C 341.323,118.766 341.656,115.099 342.5,111.5C 343.622,110.844 344.955,110.511 346.5,110.5C 348.333,110.585 349.666,111.252 350.5,112.5 Z"/></g>
<g><path style="opacity:1" fill="#f4f9fb" d="M 407.5,112.5 C 406.486,113.765 404.986,114.431 403,114.5C 401.5,114.167 400,113.833 398.5,113.5C 398.863,112.817 399.196,112.15 399.5,111.5C 402.64,108.623 405.307,108.957 407.5,112.5 Z"/></g>
<g><path style="opacity:1" fill="#77bbd8" d="M 167.5,103.5 C 167.5,113.167 167.5,122.833 167.5,132.5C 170.5,132.5 173.5,132.5 176.5,132.5C 173.375,133.479 170.042,133.813 166.5,133.5C 166.173,123.319 166.506,113.319 167.5,103.5 Z"/></g>
<g><path style="opacity:1" fill="#bddeec" d="M 297.5,103.5 C 296.019,108.012 295.352,112.678 295.5,117.5C 294.359,114.36 294.192,111.027 295,107.5C 295.122,105.563 295.955,104.23 297.5,103.5 Z"/></g>
<g><path style="opacity:1" fill="#7ebcd8" d="M 204.5,108.5 C 204.25,110.674 203.25,112.341 201.5,113.5C 201.592,111.152 202.592,109.486 204.5,108.5 Z"/></g>
<g><path style="opacity:1" fill="#5eaed0" d="M 368.5,103.5 C 368.5,113.167 368.5,122.833 368.5,132.5C 371.167,132.5 373.833,132.5 376.5,132.5C 373.713,133.477 370.713,133.81 367.5,133.5C 367.173,123.319 367.506,113.319 368.5,103.5 Z"/></g>
<g><path style="opacity:1" fill="#51a6cc" d="M 399.5,111.5 C 399.196,112.15 398.863,112.817 398.5,113.5C 400,113.833 401.5,114.167 403,114.5C 404.986,114.431 406.486,113.765 407.5,112.5C 409.176,113.183 409.843,114.517 409.5,116.5C 405.486,116.666 401.486,116.499 397.5,116C 396.359,113.776 397.026,112.276 399.5,111.5 Z"/></g>
<g><path style="opacity:1" fill="#5aa9cd" d="M 392.5,107.5 C 390.233,114.382 389.9,121.382 391.5,128.5C 390.883,128.389 390.383,128.056 390,127.5C 388.185,121.813 388.185,116.146 390,110.5C 390.377,109.058 391.21,108.058 392.5,107.5 Z"/></g>
<g><path style="opacity:1" fill="#94c9e0" d="M 229.5,112.5 C 228.64,116.434 228.307,120.434 228.5,124.5C 227.357,121.024 227.19,117.358 228,113.5C 228.383,112.944 228.883,112.611 229.5,112.5 Z"/></g>
<g><path style="opacity:1" fill="#6fb6d5" d="M 271.5,114.5 C 271.5,120.833 271.5,127.167 271.5,133.5C 267.958,133.813 264.625,133.479 261.5,132.5C 264.5,132.5 267.5,132.5 270.5,132.5C 270.177,126.31 270.51,120.31 271.5,114.5 Z"/></g>
<g><path style="opacity:1" fill="#a1cfe3" d="M 332.5,111.5 C 331.564,115.735 331.231,120.069 331.5,124.5C 330.837,122.527 330.504,120.361 330.5,118C 330.533,115.39 331.2,113.223 332.5,111.5 Z"/></g>
<g><path style="opacity:1" fill="#add5e7" d="M 342.5,111.5 C 341.656,115.099 341.323,118.766 341.5,122.5C 340.359,119.36 340.192,116.027 341,112.5C 341.383,111.944 341.883,111.611 342.5,111.5 Z"/></g>
<g><path style="opacity:1" fill="#89c3dc" d="M 350.5,112.5 C 351.794,114.048 352.461,116.048 352.5,118.5C 352.461,120.952 351.794,122.952 350.5,124.5C 351.766,120.468 351.766,116.468 350.5,112.5 Z"/></g>
<g><path style="opacity:1" fill="#b3d8e9" d="M -0.5,114.5 C 1.24512,116.033 2.24512,118.033 2.5,120.5C 1.14294,119.41 0.142944,118.076 -0.5,116.5C -0.5,115.833 -0.5,115.167 -0.5,114.5 Z"/></g>
<g><path style="opacity:1" fill="#e6f1f7" d="M 144.5,119.5 C 146.167,119.5 147.833,119.5 149.5,119.5C 149.5,121.167 149.5,122.833 149.5,124.5C 147.902,127.363 145.569,128.03 142.5,126.5C 142.013,125.554 141.68,124.554 141.5,123.5C 142.286,121.959 143.286,120.626 144.5,119.5 Z"/></g>
<g><path style="opacity:1" fill="#69b2d3" d="M 144.5,119.5 C 146.607,118.532 148.941,118.198 151.5,118.5C 151.975,121.082 151.308,123.082 149.5,124.5C 149.5,122.833 149.5,121.167 149.5,119.5C 147.833,119.5 146.167,119.5 144.5,119.5 Z"/></g>
<g><path style="opacity:1" fill="#57a9cd" d="M 255.5,110.5 C 256.482,113.962 256.815,117.629 256.5,121.5C 249.745,120.877 243.412,121.544 237.5,123.5C 236.596,122.791 236.263,121.791 236.5,120.5C 242.833,120.5 249.167,120.5 255.5,120.5C 255.5,117.167 255.5,113.833 255.5,110.5 Z"/></g>
<g><path style="opacity:1" fill="#add5e6" d="M 194.5,110.5 C 195.823,113.938 196.49,117.771 196.5,122C 196.333,125.833 196.167,129.667 196,133.5C 192.606,134.456 189.106,134.789 185.5,134.5C 185.764,127.11 185.43,119.777 184.5,112.5C 185.117,112.611 185.617,112.944 186,113.5C 186.5,119.825 186.666,126.158 186.5,132.5C 189.167,132.5 191.833,132.5 194.5,132.5C 194.5,125.167 194.5,117.833 194.5,110.5 Z"/></g>
<g><path style="opacity:1" fill="#72b8d6" d="M 70.5,125.5 C 70.0825,126.222 69.4158,126.722 68.5,127C 63.118,127.265 57.7846,127.765 52.5,128.5C 58.1042,126.701 64.1042,125.701 70.5,125.5 Z"/></g>
<g><path style="opacity:1" fill="#a7d2e5" d="M 124.5,125.5 C 125.884,124.199 127.384,124.199 129,125.5C 129.796,128.039 129.629,130.372 128.5,132.5C 128.326,130.139 127.993,127.806 127.5,125.5C 126.5,125.5 125.5,125.5 124.5,125.5 Z"/></g>
<g><path style="opacity:1" fill="#79bad7" d="M 215.5,125.5 C 218.5,125.5 221.5,125.5 224.5,125.5C 225.417,128.005 225.417,130.338 224.5,132.5C 224.579,131.07 224.246,129.736 223.5,128.5C 220.384,128.08 217.717,127.08 215.5,125.5 Z"/></g>
<g><path style="opacity:1" fill="#85c2dc" d="M 254.5,127.5 C 249.769,127.579 245.102,127.246 240.5,126.5C 244.375,126.644 248.208,126.31 252,125.5C 253.376,125.684 254.209,126.351 254.5,127.5 Z"/></g>
<g><path style="opacity:1" fill="#85c1db" d="M 350.5,125.5 C 349.688,126.993 348.355,127.66 346.5,127.5C 345.274,127.48 344.274,127.147 343.5,126.5C 345.903,126.552 348.236,126.219 350.5,125.5 Z"/></g>
<g><path style="opacity:1" fill="#6eb5d4" d="M 400.5,125.5 C 404.481,126.829 408.481,126.829 412.5,125.5C 413.713,125.747 414.38,126.414 414.5,127.5C 410.154,127.666 405.821,127.499 401.5,127C 400.944,126.617 400.611,126.117 400.5,125.5 Z"/></g>
<g><path style="opacity:1" fill="#b9dbea" d="M 134.5,118.5 C 133.656,122.099 133.323,125.766 133.5,129.5C 131.974,128.508 131.307,127.008 131.5,125C 131.32,122.198 132.32,120.031 134.5,118.5 Z"/></g>
<g><path style="opacity:1" fill="#65add0" d="M 41.5,128.5 C 41.62,129.586 42.2867,130.253 43.5,130.5C 45.851,129.827 48.1843,129.16 50.5,128.5C 46.8134,130.342 43.4801,132.675 40.5,135.5C 40.7148,133.821 40.0481,132.821 38.5,132.5C 39.0256,130.77 40.0256,129.436 41.5,128.5 Z"/></g>
<g><path style="opacity:1" fill="#9ecee3" d="M 323.5,125.5 C 324.568,124.566 325.901,124.232 327.5,124.5C 327.511,126.547 327.844,128.547 328.5,130.5C 328.253,131.713 327.586,132.38 326.5,132.5C 326.5,130.167 326.5,127.833 326.5,125.5C 325.5,125.5 324.5,125.5 323.5,125.5 Z"/></g>
<g><path style="opacity:1" fill="#afd6e7" d="M 358.5,128.5 C 357.871,130.997 356.204,132.33 353.5,132.5C 354.945,130.937 356.611,129.604 358.5,128.5 Z"/></g>
<g><path style="opacity:1" fill="#b4d9e9" d="M 414.5,128.5 C 415.586,128.62 416.253,129.287 416.5,130.5C 416.253,131.713 415.586,132.38 414.5,132.5C 414.5,131.167 414.5,129.833 414.5,128.5 Z"/></g>
<g><path style="opacity:1" fill="#2691c0" d="M 38.5,132.5 C 40.0481,132.821 40.7148,133.821 40.5,135.5C 38.8082,137.514 37.4749,139.848 36.5,142.5C 35.9547,149.594 34.9547,156.594 33.5,163.5C 30.3603,168.523 26.027,171.856 20.5,173.5C 16.6279,173.758 12.9612,173.091 9.5,171.5C 8.41683,171.461 7.41683,171.127 6.5,170.5C 4.14919,167.761 1.81586,165.095 -0.5,162.5C -0.5,158.167 -0.5,153.833 -0.5,149.5C 2.03984,146.272 4.70651,143.105 7.5,140C 8.44802,139.517 9.44802,139.351 10.5,139.5C 16.0855,138.712 21.7521,138.212 27.5,138C 28.4158,137.722 29.0825,137.222 29.5,136.5C 32.6717,135.492 35.6717,134.158 38.5,132.5 Z"/></g>
<g><path style="opacity:1" fill="#aed6e7" d="M 110.5,132.5 C 115.772,133.4 121.105,133.733 126.5,133.5C 124.022,134.164 121.355,134.497 118.5,134.5C 115.41,134.478 112.743,133.812 110.5,132.5 Z"/></g>
<g><path style="opacity:1" fill="#b0d7e8" d="M 147.5,132.5 C 146.306,133.777 144.64,134.444 142.5,134.5C 140.631,134.493 138.964,134.16 137.5,133.5C 140.902,133.658 144.236,133.324 147.5,132.5 Z"/></g>
<g><path style="opacity:1" fill="#bedeec" d="M 159.5,110.5 C 160.656,117.989 160.822,125.655 160,133.5C 158.6,134.116 157.1,134.449 155.5,134.5C 153.667,134.415 152.334,133.748 151.5,132.5C 154.167,132.5 156.833,132.5 159.5,132.5C 159.5,125.167 159.5,117.833 159.5,110.5 Z"/></g>
<g><path style="opacity:1" fill="#b3d8e8" d="M 224.5,132.5 C 222.603,133.805 220.269,134.471 217.5,134.5C 214.975,134.497 212.641,134.163 210.5,133.5C 215.23,133.717 219.897,133.383 224.5,132.5 Z"/></g>
<g><path style="opacity:1" fill="#a7d3e5" d="M 237.5,132.5 C 241.768,133.373 246.102,133.706 250.5,133.5C 246.689,134.645 242.689,134.812 238.5,134C 237.944,133.617 237.611,133.117 237.5,132.5 Z"/></g>
<g><path style="opacity:1" fill="#add6e7" d="M 325.5,132.5 C 323.257,133.812 320.59,134.478 317.5,134.5C 314.645,134.497 311.978,134.164 309.5,133.5C 314.88,133.676 320.213,133.342 325.5,132.5 Z"/></g>
<g><path style="opacity:1" fill="#a8d3e5" d="M 339.5,132.5 C 343.5,133.833 347.5,133.833 351.5,132.5C 351.389,133.117 351.056,133.617 350.5,134C 347.167,134.667 343.833,134.667 340.5,134C 339.944,133.617 339.611,133.117 339.5,132.5 Z"/></g>
<g><path style="opacity:1" fill="#aed6e7" d="M 413.5,132.5 C 411.603,133.805 409.269,134.471 406.5,134.5C 403.975,134.497 401.641,134.163 399.5,133.5C 404.214,133.647 408.881,133.314 413.5,132.5 Z"/></g>
<g><path style="opacity:1" fill="#93c9df" d="M 73.5,134.5 C 66.2537,133.536 58.9204,133.203 51.5,133.5C 51.5,146.833 51.5,160.167 51.5,173.5C 58.8333,173.5 66.1667,173.5 73.5,173.5C 73.5,172.5 73.5,171.5 73.5,170.5C 74.4345,171.568 74.7678,172.901 74.5,174.5C 66.5,174.5 58.5,174.5 50.5,174.5C 50.5,160.5 50.5,146.5 50.5,132.5C 58.5729,131.868 66.2395,132.535 73.5,134.5 Z"/></g>
<g><path style="opacity:1" fill="#58aace" d="M 73.5,134.5 C 73.5,135.5 73.5,136.5 73.5,137.5C 67.8333,137.5 62.1667,137.5 56.5,137.5C 56.5,141.833 56.5,146.167 56.5,150.5C 61.5,150.5 66.5,150.5 71.5,150.5C 71.5,151.833 71.5,153.167 71.5,154.5C 66.3054,154.179 61.3054,154.513 56.5,155.5C 56.5,160.167 56.5,164.833 56.5,169.5C 62.358,169.178 68.0247,169.511 73.5,170.5C 73.5,171.5 73.5,172.5 73.5,173.5C 66.1667,173.5 58.8333,173.5 51.5,173.5C 51.5,160.167 51.5,146.833 51.5,133.5C 58.9204,133.203 66.2537,133.536 73.5,134.5 Z"/></g>
<g><path style="opacity:1" fill="#9ccde2" d="M 29.5,136.5 C 29.0825,137.222 28.4158,137.722 27.5,138C 21.7521,138.212 16.0855,138.712 10.5,139.5C 16.4197,137.602 22.753,136.602 29.5,136.5 Z"/></g>
<g><path style="opacity:1" fill="#b6dae9" d="M 217.5,145.5 C 213.731,145.244 210.064,145.577 206.5,146.5C 206.47,145.503 206.97,144.836 208,144.5C 209.792,143.963 211.625,143.63 213.5,143.5C 215.333,143.585 216.666,144.252 217.5,145.5 Z"/></g>
<g><path style="opacity:1" fill="#a5d1e5" d="M 151.5,145.5 C 147.069,145.231 142.735,145.564 138.5,146.5C 138.47,145.503 138.97,144.836 140,144.5C 143.455,143.45 146.955,143.283 150.5,144C 151.056,144.383 151.389,144.883 151.5,145.5 Z"/></g>
<g><path style="opacity:1" fill="#a6d2e5" d="M 186.5,145.5 C 183.167,145.5 179.833,145.5 176.5,145.5C 179.833,142.833 183.167,142.833 186.5,145.5 Z"/></g>
<g><path style="opacity:1" fill="#bcddeb" d="M 124.5,144.5 C 125.919,143.549 127.585,143.216 129.5,143.5C 129.5,145.833 129.5,148.167 129.5,150.5C 127.5,150.5 125.5,150.5 123.5,150.5C 124.919,149.549 126.585,149.216 128.5,149.5C 128.5,147.833 128.5,146.167 128.5,144.5C 127.167,144.5 125.833,144.5 124.5,144.5 Z"/></g>
<g><path style="opacity:1" fill="#5aabcf" d="M 151.5,145.5 C 154.397,146.43 156.73,148.097 158.5,150.5C 159.314,155.119 159.647,159.786 159.5,164.5C 156.415,172.714 150.415,176.214 141.5,175C 139.067,173.87 136.734,172.704 134.5,171.5C 134.567,170.041 134.234,168.708 133.5,167.5C 132.617,162.897 132.283,158.23 132.5,153.5C 133.378,150.283 135.378,147.95 138.5,146.5C 142.735,145.564 147.069,145.231 151.5,145.5 Z"/></g>
<g><path style="opacity:1" fill="#5dadd0" d="M 170.5,145.5 C 171.158,146.398 171.824,147.398 172.5,148.5C 173.799,147.306 175.132,146.306 176.5,145.5C 179.833,145.5 183.167,145.5 186.5,145.5C 190.016,146.179 192.516,148.179 194,151.5C 197.32,162.217 194.153,170.05 184.5,175C 179.614,176.252 175.614,175.085 172.5,171.5C 171.514,175.97 171.181,180.637 171.5,185.5C 170.167,185.5 168.833,185.5 167.5,185.5C 167.5,172.167 167.5,158.833 167.5,145.5C 168.5,145.5 169.5,145.5 170.5,145.5 Z"/></g>
<g><path style="opacity:1" fill="#5baccf" d="M 217.5,145.5 C 224.033,148.222 226.699,153.222 225.5,160.5C 218.5,160.5 211.5,160.5 204.5,160.5C 204.343,161.873 204.51,163.207 205,164.5C 206.669,165.846 207.836,167.513 208.5,169.5C 212.982,170.326 217.649,170.826 222.5,171C 222.833,171.333 223.167,171.667 223.5,172C 222.619,172.708 221.953,173.542 221.5,174.5C 214.501,176.605 208.168,175.438 202.5,171C 201.748,170.329 201.414,169.496 201.5,168.5C 200.617,163.897 200.283,159.23 200.5,154.5C 200.59,150.293 202.59,147.626 206.5,146.5C 210.064,145.577 213.731,145.244 217.5,145.5 Z"/></g>
<g><path style="opacity:1" fill="#59abcf" d="M 95.5,170.5 C 96.8333,170.5 97.5,171.167 97.5,172.5C 91.4103,177.051 86.077,176.218 81.5,170C 80.5454,161.876 80.2121,153.71 80.5,145.5C 82.1667,145.5 83.8333,145.5 85.5,145.5C 84.7934,153.784 85.7934,161.784 88.5,169.5C 90.7427,170.474 93.076,170.808 95.5,170.5 Z"/></g>
<g><path style="opacity:1" fill="#4da6cc" d="M 98.5,167.5 C 98.3284,166.508 98.6618,165.842 99.5,165.5C 100.491,159.021 100.824,152.354 100.5,145.5C 101.833,145.5 103.167,145.5 104.5,145.5C 104.5,154.833 104.5,164.167 104.5,173.5C 103.5,173.5 102.5,173.5 101.5,173.5C 101.5,172.167 101.5,170.833 101.5,169.5C 99.8212,169.715 98.8212,169.048 98.5,167.5 Z"/></g>
<g><path style="opacity:1" fill="#7ebed9" d="M 97.5,172.5 C 97.5,171.167 96.8333,170.5 95.5,170.5C 95.8102,168.856 96.8102,167.856 98.5,167.5C 98.8212,169.048 99.8212,169.715 101.5,169.5C 101.5,170.833 101.5,172.167 101.5,173.5C 102.5,173.5 103.5,173.5 104.5,173.5C 104.5,164.167 104.5,154.833 104.5,145.5C 103.167,145.5 101.833,145.5 100.5,145.5C 100.824,152.354 100.491,159.021 99.5,165.5C 99.5,158.5 99.5,151.5 99.5,144.5C 101.5,144.5 103.5,144.5 105.5,144.5C 105.5,154.5 105.5,164.5 105.5,174.5C 103.833,174.5 102.167,174.5 100.5,174.5C 100.598,171.752 99.5983,171.086 97.5,172.5 Z"/></g>
<g><path style="opacity:1" fill="#55a9ce" d="M 124.5,144.5 C 125.833,144.5 127.167,144.5 128.5,144.5C 128.5,146.167 128.5,147.833 128.5,149.5C 126.585,149.216 124.919,149.549 123.5,150.5C 121.827,151.343 120.66,152.676 120,154.5C 119.5,161.158 119.334,167.825 119.5,174.5C 117.833,174.5 116.167,174.5 114.5,174.5C 114.5,164.833 114.5,155.167 114.5,145.5C 115.5,145.5 116.5,145.5 117.5,145.5C 118.75,145.577 119.583,146.244 120,147.5C 121.615,146.614 123.115,145.614 124.5,144.5 Z"/></g>
<g><path style="opacity:1" fill="#fbfcfd" d="M 153.5,153.5 C 153.706,157.898 153.373,162.232 152.5,166.5C 152.167,167.167 151.833,167.833 151.5,168.5C 148.236,169.324 144.902,169.658 141.5,169.5C 139.856,168.684 138.69,167.35 138,165.5C 137.337,160.463 137.504,155.463 138.5,150.5C 142.463,149.56 146.463,149.393 150.5,150C 151.163,151.518 152.163,152.685 153.5,153.5 Z"/></g>
<g><path style="opacity:1" fill="#f9fcfd" d="M 176.5,149.5 C 187.446,148.66 191.279,153.66 188,164.5C 185.896,169.832 182.063,171.499 176.5,169.5C 174.803,168.636 173.637,167.303 173,165.5C 172.333,161.5 172.333,157.5 173,153.5C 173.69,151.65 174.856,150.316 176.5,149.5 Z"/></g>
<g><path style="opacity:1" fill="#f2f8fb" d="M 219.5,156.5 C 214.833,156.5 210.167,156.5 205.5,156.5C 205.5,155.5 205.5,154.5 205.5,153.5C 206.219,151.112 207.885,149.612 210.5,149C 216.706,147.76 219.706,150.26 219.5,156.5 Z"/></g>
<g><path style="opacity:1" fill="#cce5ef" d="M 158.5,150.5 C 159.586,150.62 160.253,151.287 160.5,152.5C 161.515,156.131 161.681,159.798 161,163.5C 160.617,164.056 160.117,164.389 159.5,164.5C 159.647,159.786 159.314,155.119 158.5,150.5 Z"/></g>
<g><path style="opacity:1" fill="#96cbe1" d="M 117.5,145.5 C 116.5,145.5 115.5,145.5 114.5,145.5C 114.5,155.167 114.5,164.833 114.5,174.5C 113.506,164.681 113.173,154.681 113.5,144.5C 115.099,144.232 116.432,144.566 117.5,145.5 Z"/></g>
<g><path style="opacity:1" fill="#84c1db" d="M 170.5,145.5 C 169.5,145.5 168.5,145.5 167.5,145.5C 167.5,158.833 167.5,172.167 167.5,185.5C 168.833,185.5 170.167,185.5 171.5,185.5C 171.181,180.637 171.514,175.97 172.5,171.5C 172.5,176.5 172.5,181.5 172.5,186.5C 170.5,186.5 168.5,186.5 166.5,186.5C 166.5,172.5 166.5,158.5 166.5,144.5C 168.099,144.232 169.432,144.566 170.5,145.5 Z"/></g>
<g><path style="opacity:1" fill="#9ecee3" d="M 71.5,150.5 C 72.4511,151.919 72.7845,153.585 72.5,155.5C 67.1667,155.5 61.8333,155.5 56.5,155.5C 61.3054,154.513 66.3054,154.179 71.5,154.5C 71.5,153.167 71.5,151.833 71.5,150.5 Z"/></g>
<g><path style="opacity:1" fill="#8ec6de" d="M 205.5,153.5 C 205.5,154.5 205.5,155.5 205.5,156.5C 210.167,156.5 214.833,156.5 219.5,156.5C 214.695,157.487 209.695,157.821 204.5,157.5C 204.232,155.901 204.566,154.568 205.5,153.5 Z"/></g>
<g><path style="opacity:1" fill="#91c7df" d="M 132.5,153.5 C 132.283,158.23 132.617,162.897 133.5,167.5C 131.518,165.417 130.518,162.751 130.5,159.5C 130.599,157.201 131.266,155.201 132.5,153.5 Z"/></g>
<g><path style="opacity:1" fill="#b7daea" d="M 200.5,154.5 C 200.283,159.23 200.617,163.897 201.5,168.5C 199.245,166.241 198.245,163.408 198.5,160C 198.667,158.5 198.833,157 199,155.5C 199.383,154.944 199.883,154.611 200.5,154.5 Z"/></g>
<g><path style="opacity:1" fill="#afd6e8" d="M 153.5,153.5 C 155.337,156.519 155.837,159.852 155,163.5C 154.623,164.942 153.79,165.942 152.5,166.5C 153.373,162.232 153.706,157.898 153.5,153.5 Z"/></g>
<g><path style="opacity:1" fill="#bbdceb" d="M 151.5,168.5 C 150.102,170.533 148.102,171.533 145.5,171.5C 143.645,171.66 142.312,170.993 141.5,169.5C 144.902,169.658 148.236,169.324 151.5,168.5 Z"/></g>
<g><path style="opacity:1" fill="#c8e3ee" d="M 221.5,174.5 C 221.953,173.542 222.619,172.708 223.5,172C 223.167,171.667 222.833,171.333 222.5,171C 217.649,170.826 212.982,170.326 208.5,169.5C 213.87,169.608 219.203,169.275 224.5,168.5C 224.66,170.199 224.494,171.866 224,173.5C 223.329,174.252 222.496,174.586 221.5,174.5 Z"/></g>
<g><path style="opacity:1" fill="#b3d9e9" d="M 9.5,171.5 C 12.9612,173.091 16.6279,173.758 20.5,173.5C 18.0336,174.634 15.367,174.801 12.5,174C 10.8807,173.764 9.88066,172.931 9.5,171.5 Z"/></g>
</svg>
